<svg xmlns="http://www.w3.org/2000/svg" viewBox="0 0 15 15">
  <path id="Path_2028" data-name="Path 2028" d="M14.9,7.261,12.273,4.636V1.023a.322.322,0,0,0-.341-.341H9.886a.322.322,0,0,0-.341.341v.886L7.739.1a.33.33,0,0,0-.477,0L.1,7.261A.309.309,0,0,0,0,7.5a.322.322,0,0,0,.341.341.309.309,0,0,0,.239-.1L2.045,6.273v8.386A.322.322,0,0,0,2.386,15H12.614a.322.322,0,0,0,.341-.341V6.273L14.42,7.739a.309.309,0,0,0,.239.1A.322.322,0,0,0,15,7.5a.309.309,0,0,0-.1-.239m-4.67-5.9h1.364V3.955L10.227,2.591ZM5.455,14.318H2.727v-.682H5.455Zm3.409,0H6.136V8.864H8.864Zm3.409,0H9.545v-.682h2.727Zm0-1.364H9.545V8.523A.322.322,0,0,0,9.2,8.182H5.8a.322.322,0,0,0-.341.341v4.432H2.727V5.591L7.5.818l4.773,4.773Zm-4.432-.682a.341.341,0,1,0-.341-.341.322.322,0,0,0,.341.341"/>
</svg>
