<svg id="Group_97" data-name="Group 97" xmlns="http://www.w3.org/2000/svg" viewBox="0 0 74.805 59.766">
  <defs>
    <style>
      .cls-1 {
        fill: rgba(255,255,255,0.91);
      }
    </style>
  </defs>
  <g id="Group_80" data-name="Group 80">
    <path id="Path_245" data-name="Path 245" class="cls-1" d="M74.671-2.97a2.019,2.019,0,0,0-1.848-1.745,3.334,3.334,0,0,0-2,.913,6.742,6.742,0,0,0-.6.567l-3.01-.413,1.768-2.659A6.334,6.334,0,0,0,70-6.7a2.3,2.3,0,0,0,1.522-1.9,2.4,2.4,0,0,0-.864-1.672,2.266,2.266,0,0,0-1.545-.745,1.727,1.727,0,0,0-1.309.666,5.625,5.625,0,0,0-.962,2.37L64.278-6.11l-.228-1.264A5.762,5.762,0,0,0,64.36-9.05a2.076,2.076,0,0,0-.328-1.2,1.552,1.552,0,0,0-1.335-.638c-.07,0-.149,0-.23.01a1.719,1.719,0,0,0-1.27.655,1.982,1.982,0,0,0-.348,1.176A5.541,5.541,0,0,0,61.4-6.921a12.235,12.235,0,0,1-.5,3.5A8.684,8.684,0,0,1,59.255-1.2,5.444,5.444,0,0,1,57.586.052a29.7,29.7,0,0,1,1.421-4.143,19.327,19.327,0,0,0,1.53-5.254,1.451,1.451,0,0,0-.6-1.31,1.463,1.463,0,0,0-.787-.187c-1.6.039-4.358,1.379-6.978,2.692-.558.29-1.1.573-1.61.845a9.27,9.27,0,0,0,1.587-4.858c0-.173-.009-.341-.02-.5A12.334,12.334,0,0,0,50.557-17.8c.233.094.475.2.729.311a15.842,15.842,0,0,0,4.408,1.365.5.5,0,0,0,.114-.006,2.182,2.182,0,0,0,1.586-1.206c1.116-1.783,2.159-5.251,3.972-8.07a28.815,28.815,0,0,1,4.45-5.107c1.148-1.073,2.1-1.854,2.477-2.149a8.19,8.19,0,0,0,1.536-.22,3.836,3.836,0,0,0,1.35-.6,1.816,1.816,0,0,0,.765-1.461,2.5,2.5,0,0,0-.3-1.133,1.871,1.871,0,0,0-1.652-1.157,3.48,3.48,0,0,0-2.295,1.333,10.533,10.533,0,0,0-.759.943l-2,.23.847-3.092a5.325,5.325,0,0,0,1.545-3.09,2.13,2.13,0,0,0-1.742-2.027,2.971,2.971,0,0,0-.882-.14,1.817,1.817,0,0,0-1.685,1.017,3.8,3.8,0,0,0-.343,1.726,9.174,9.174,0,0,0,.217,1.862,7.656,7.656,0,0,1-.615,2.852,2.953,2.953,0,0,1-.971,1.132,1.094,1.094,0,0,1-.13.076l-1.048-1.146c.02-.218.045-.538.045-.889a4.863,4.863,0,0,0-.242-1.645,1.59,1.59,0,0,0-1.491-1.137,2.247,2.247,0,0,0-.98.248,1.993,1.993,0,0,0-1.275,1.818,4.46,4.46,0,0,0,1.479,2.765l.522,2.964a4.483,4.483,0,0,0-2.1-.713,1.658,1.658,0,0,0-1.141.413,1.983,1.983,0,0,0-.568,1.3,2.437,2.437,0,0,0-.015.313,1.791,1.791,0,0,0,.7,1.525,2.186,2.186,0,0,0,1.317.372,5.035,5.035,0,0,0,1.34-.208.4.4,0,0,1,.075.011,1.643,1.643,0,0,1,.619.245.548.548,0,0,1,.258.509,1.687,1.687,0,0,1-.06.383,24.268,24.268,0,0,1-1.327,3.709c-.574,1.3-1.41,2.124-1.671,2.03h-.03a7.571,7.571,0,0,1-1.967-.8,29.145,29.145,0,0,1-5.05-3.409c-1.61-1.329-2.844-2.835-2.986-3.73a3.539,3.539,0,0,1-.066-.7c-.055-2.289,2.106-5.074,2.168-7.888a4.259,4.259,0,0,0-.218-1.368c-1.1-3.272-3.553-3.515-4.649-4.31-1.091-.644-2.688-4.129-6.438-4.157-.069,0-.145,0-.223.006l-.991.016.014.665-.027-.665c-3.9.177-5.269,3.9-6.329,4.631-1.031.874-3.464,1.3-4.313,4.641a3.983,3.983,0,0,0-.129,1.035,10.533,10.533,0,0,0,1.451,4.4,9.51,9.51,0,0,1,1.318,3.942c0,.135-.012.273-.025.413-.092,1.222-2.078,3.564-4.288,5.375a28.358,28.358,0,0,1-3.2,2.336,6.589,6.589,0,0,1-1.936.937h-.024c-.281.09-1.169-.716-1.821-1.948a24.3,24.3,0,0,1-1.565-3.552A1.282,1.282,0,0,1,14.2-26.1c.007-.3.145-.431.433-.6a1.585,1.585,0,0,1,.4-.151.237.237,0,0,1,.062-.014,5.542,5.542,0,0,0,1.068.116,2.563,2.563,0,0,0,1.355-.327,1.727,1.727,0,0,0,.806-1.529,3.5,3.5,0,0,0-.045-.505,1.712,1.712,0,0,0-1.672-1.59,4.228,4.228,0,0,0-2.206.881l.3-3a4.707,4.707,0,0,0,1.28-2.714,2,2,0,0,0-1.418-1.881,2.452,2.452,0,0,0-.864-.176,1.516,1.516,0,0,0-1.408.925,3.479,3.479,0,0,0-.265,1.459,9.194,9.194,0,0,0,.129,1.411L11.2-32.562a2.908,2.908,0,0,1-1.192-1.129,6.287,6.287,0,0,1-.673-1.873,7.4,7.4,0,0,1-.149-.932,9.962,9.962,0,0,0,.091-1.32,4.961,4.961,0,0,0-.314-1.9A1.879,1.879,0,0,0,7.2-40.956a2.906,2.906,0,0,0-1.04.215,2.152,2.152,0,0,0-1.59,1.992,3.923,3.923,0,0,0,.987,2.27,8.51,8.51,0,0,0,.8.869L7.423-32.6,5.408-32.68a9.24,9.24,0,0,0-.791-.854,3.653,3.653,0,0,0-2.3-1.2A1.853,1.853,0,0,0,.633-33.443a2.6,2.6,0,0,0-.223,1,2.027,2.027,0,0,0,1.6,1.876,6.65,6.65,0,0,0,2.012.273c.079,0,.146,0,.2,0,.389.275,1.405.972,2.629,1.962a28.491,28.491,0,0,1,4.818,4.761,41.451,41.451,0,0,1,3.277,5.587,18.46,18.46,0,0,0,1.284,2.166,2.181,2.181,0,0,0,1.646,1.087,13.743,13.743,0,0,0,4.338-1.651c.275-.137.544-.278.8-.411a12.322,12.322,0,0,0-1.183,5.226,8.985,8.985,0,0,0,1.956,5.241c-.477-.215-.985-.436-1.506-.658-2.627-1.1-5.483-2.219-7.107-2.246a1.713,1.713,0,0,0-.982.26,1.35,1.35,0,0,0-.51,1.149c.036,1.356.99,3.3,1.909,5.292.463.981.92,1.931,1.255,2.725a9.3,9.3,0,0,1,.478,1.328,5.6,5.6,0,0,1-1.8-1.157A8.386,8.386,0,0,1,13.775-1.7a8.554,8.554,0,0,1-.61-2.218c-.081-.542-.131-1-.146-1.223a6.146,6.146,0,0,0,.394-1.941,2.147,2.147,0,0,0-.359-1.263,1.693,1.693,0,0,0-1.41-.673h-.035a1.666,1.666,0,0,0-1.347.564,1.825,1.825,0,0,0-.368,1.177,5.255,5.255,0,0,0,.444,1.881L10.2-4.121,7.512-5.8a8.523,8.523,0,0,0-.418-1.156c-.337-.693-.817-1.639-1.968-1.707a2.22,2.22,0,0,0-1.6.866,2.464,2.464,0,0,0-.743,1.6,1.727,1.727,0,0,0,.593,1.27A4.677,4.677,0,0,0,5.5-3.972L7.466-1.445l-2.975.63a6.22,6.22,0,0,0-.6-.482A3.569,3.569,0,0,0,1.92-2.1,1.984,1.984,0,0,0,.073-.221,3.639,3.639,0,0,0,0,.465a1.833,1.833,0,0,0,.76,1.584,2.568,2.568,0,0,0,1.464.384,7.421,7.421,0,0,0,2.189-.408C4.9,2,7.291,1.894,10.1,1.894a6.532,6.532,0,0,1,2.853,1.433A78.977,78.977,0,0,1,19.08,8.544c.966.875,1.847,1.671,2.569,2.258a9.431,9.431,0,0,0,.967.716,1.836,1.836,0,0,0,.854.344v0l.059.009.056-.006a.948.948,0,0,0,.847-.7,2.756,2.756,0,0,0,.111-.874c-.014-2.058-1.1-6.467-1.737-8.88.519.324,1.123.7,1.736,1.056C26.3,3.473,28.017,3.6,29.576,4.456c1.559.819,2.6,2.258,4.334,3.285a7.182,7.182,0,0,0,3.451.715,7.92,7.92,0,0,0,4.156-.966C43.168,6.327,44.1,4.819,45.6,3.883c1.489-.972,3.192-1.223,4.869-2.361.584-.4,1.162-.811,1.656-1.182a59.441,59.441,0,0,0-1.1,8.419,5.076,5.076,0,0,0,.115,1.194,1.457,1.457,0,0,0,.238.519.909.909,0,0,0,.694.361h.05a2.224,2.224,0,0,0,1.194-.621c1.334-1.119,3.588-3.665,5.893-5.986A39.933,39.933,0,0,1,62.524,1.17,5.515,5.515,0,0,1,64.832-.119C67.626-.33,70.012-.4,70.5-.411a7.828,7.828,0,0,0,1.868.26A3.156,3.156,0,0,0,73.923-.5,1.785,1.785,0,0,0,74.8-2.1a3.305,3.305,0,0,0-.132-.871" transform="translate(0 47.892)"/>
  </g>
</svg>
