<svg xmlns="http://www.w3.org/2000/svg" viewBox="0 0 16.582 12.06">
  <path id="Path_2030" data-name="Path 2030" d="M15.075,0H1.507A1.512,1.512,0,0,0,0,1.507v9.045A1.512,1.512,0,0,0,1.507,12.06H15.075a1.512,1.512,0,0,0,1.507-1.507V1.507A1.512,1.512,0,0,0,15.075,0M1.507.754H15.075a.641.641,0,0,1,.264.038l-6.52,6.52a.729.729,0,0,1-1.055,0L1.244.791A.641.641,0,0,1,1.507.754m-.754,9.8V1.394L5.427,6.03.754,10.665v-.113m14.321.754H1.507a.641.641,0,0,1-.264-.038L5.954,6.557,7.236,7.839a1.488,1.488,0,0,0,1.055.452,1.62,1.62,0,0,0,1.055-.415L10.628,6.6l4.711,4.711h-.264m.754-.754v.113L11.155,6.03l4.673-4.635v9.158Z"/>
</svg>
