<svg xmlns="http://www.w3.org/2000/svg" viewBox="0 0 44 44">
  <path id="Path_351" data-name="Path 351" d="M22-86A20,20,0,0,1,2-106a20,20,0,0,1,20-20,20,20,0,0,1,20,20A20,20,0,0,1,22-86m0-42A22,22,0,0,0,0-106,22,22,0,0,0,22-84a22,22,0,0,0,22-22,22,22,0,0,0-22-22m10.447,14.3a8.292,8.292,0,0,1-2.6.98A4.127,4.127,0,0,0,26.847-114a4.072,4.072,0,0,0-4.1,4.038,3.954,3.954,0,0,0,.106.921,11.709,11.709,0,0,1-8.457-4.221,3.968,3.968,0,0,0-.556,2.031,4.022,4.022,0,0,0,1.825,3.362,4.143,4.143,0,0,1-1.858-.506c0,.018,0,.033,0,.051a4.059,4.059,0,0,0,3.292,3.961,4.226,4.226,0,0,1-1.081.14,4.175,4.175,0,0,1-.772-.072,4.1,4.1,0,0,0,3.832,2.805,8.309,8.309,0,0,1-5.095,1.728A8.528,8.528,0,0,1,13-99.814,11.766,11.766,0,0,0,19.29-98a11.5,11.5,0,0,0,11.675-11.491q0-.263-.012-.522A8.314,8.314,0,0,0,33-112.1a8.288,8.288,0,0,1-2.356.635,4.064,4.064,0,0,0,1.8-2.234" transform="translate(0 128)"/>
</svg>
