<svg xmlns="http://www.w3.org/2000/svg" viewBox="0 0 55.844 66.176">
  <defs>
    <style>
      .cls-1 {
        fill: #fff;
        fill-rule: evenodd;
      }
    </style>
  </defs>
  <path id="Path_244" data-name="Path 244" class="cls-1" d="M55.844-31.63A27.92,27.92,0,0,0,27.922-59.549,27.92,27.92,0,0,0,0-31.63,27.929,27.929,0,0,0,21.859-4.371a44.241,44.241,0,0,1-5.273,11h5.606a128.023,128.023,0,0,0,4.586-17.543A40.1,40.1,0,0,1,10.721-33.4,49.6,49.6,0,0,0,27.609-16.28a91.561,91.561,0,0,0,.707-13.354,18.454,18.454,0,0,1-8.747-10.834,22.36,22.36,0,0,0,8.645,7.862,119.2,119.2,0,0,0-1.425-13.055,75.694,75.694,0,0,1,5.953,19.478,37.45,37.45,0,0,0,8.25-15.623,31.779,31.779,0,0,1-7.566,21.351A78.861,78.861,0,0,1,30.672,6.627h4.28A45.206,45.206,0,0,0,36.115-4.929a27.938,27.938,0,0,0,19.73-26.7" transform="translate(0 59.549)"/>
</svg>
