<svg xmlns="http://www.w3.org/2000/svg" viewBox="0 0 44 44">
  <path id="Path_353" data-name="Path 353" d="M30-16a2,2,0,0,1-2,2H16a2,2,0,0,1-2-2v-7h2.1a6,6,0,0,0-.1,1,6,6,0,0,0,6,6,6,6,0,0,0,6-6,5.9,5.9,0,0,0-.1-1H30ZM22-26a4,4,0,0,1,4,4,4,4,0,0,1-4,4,4,4,0,0,1-4-4,4,4,0,0,1,4-4m4-3h3v3H26Zm2-3H16a4,4,0,0,0-4,4v12a4,4,0,0,0,4,4H28a4,4,0,0,0,4-4V-28a4,4,0,0,0-4-4M22-2A20,20,0,0,1,2-22,20,20,0,0,1,22-42,20,20,0,0,1,42-22,20,20,0,0,1,22-2m0-42A22,22,0,0,0,0-22,22,22,0,0,0,22,0,22,22,0,0,0,44-22,22,22,0,0,0,22-44" transform="translate(0 44)"/>
</svg>
